<?xml version="1.0" standalone="no"?>
<!DOCTYPE svg PUBLIC "-//W3C//DTD SVG 20010904//EN"
 "http://www.w3.org/TR/2001/REC-SVG-20010904/DTD/svg10.dtd">
<svg version="1.0" xmlns="http://www.w3.org/2000/svg"
 width="1024.000000pt" height="1024.000000pt" viewBox="0 0 1024.000000 1024.000000"
 preserveAspectRatio="xMidYMid meet">
<metadata>
Created by potrace 1.12, written by Peter Selinger 2001-2015
</metadata>
<g transform="translate(0.000000,1024.000000) scale(0.100000,-0.100000)"
fill="#000000" stroke="none">
<path d="M4890 9874 c-25 -2 -101 -8 -170 -14 -984 -84 -1962 -501 -2710
-1157 -843 -739 -1390 -1719 -1575 -2820 -48 -287 -59 -434 -59 -783 0 -349
11 -496 59 -783 340 -2022 1910 -3592 3932 -3932 287 -48 434 -59 783 -59 349
0 496 11 783 59 2022 340 3592 1910 3932 3932 48 287 59 434 59 783 0 349 -11
496 -59 783 -167 991 -629 1889 -1336 2596 -777 778 -1780 1256 -2889 1376
-136 15 -646 28 -750 19z m-1660 -1934 c0 -71 1 -130 3 -130 2 0 39 20 82 45
317 180 757 233 1160 138 446 -104 767 -390 904 -805 12 -37 32 -109 44 -160
21 -93 21 -94 27 -2173 5 -1959 7 -2084 24 -2140 91 -308 321 -483 689 -526
161 -19 351 -1 493 46 117 39 197 88 285 175 97 95 145 177 182 309 20 74 21
98 25 791 2 393 1 847 -3 1007 l-7 293 -312 2 -311 3 -3 263 -2 262 315 0 315
0 0 465 0 465 265 0 265 0 0 -465 0 -465 300 0 300 0 -2 -262 -3 -263 -297 -3
-297 -2 -4 -1063 c-3 -1183 1 -1105 -73 -1281 -56 -131 -111 -215 -213 -317
-143 -144 -299 -237 -511 -303 -402 -125 -920 -105 -1282 50 -298 127 -516
351 -608 623 -58 172 -53 10 -59 2276 l-6 2080 -28 90 c-109 349 -346 539
-716 574 -426 40 -768 -162 -890 -526 -50 -150 -51 -163 -51 -1425 l0 -1178
-265 0 -265 0 0 1830 0 1830 265 0 265 0 0 -130z"/>
</g>
</svg>
