<?xml version="1.0" standalone="no"?>
<!DOCTYPE svg PUBLIC "-//W3C//DTD SVG 20010904//EN"
 "http://www.w3.org/TR/2001/REC-SVG-20010904/DTD/svg10.dtd">
<svg version="1.0" xmlns="http://www.w3.org/2000/svg"
 width="1024.000000pt" height="1024.000000pt" viewBox="0 0 1024.000000 1024.000000"
 preserveAspectRatio="xMidYMid meet">
<metadata>
Created by potrace 1.12, written by Peter Selinger 2001-2015
</metadata>
<g transform="translate(0.000000,1024.000000) scale(0.100000,-0.100000)"
fill="#000000" stroke="none">
<path d="M4890 9874 c-25 -2 -101 -8 -170 -14 -878 -75 -1758 -417 -2470 -961
-328 -251 -647 -570 -899 -899 -472 -617 -786 -1342 -916 -2117 -48 -287 -59
-434 -59 -783 0 -403 28 -675 104 -1023 243 -1102 873 -2090 1770 -2776 617
-472 1342 -786 2117 -916 287 -48 434 -59 783 -59 403 0 675 28 1023 104 1102
243 2091 873 2776 1770 472 618 786 1342 916 2117 48 287 59 434 59 783 0 403
-28 675 -104 1023 -243 1102 -873 2091 -1770 2776 -696 532 -1521 859 -2410
956 -136 15 -646 28 -750 19z m-1658 -1932 l3 -129 92 52 c105 59 261 114 413
147 91 19 135 22 335 22 212 0 240 -2 357 -27 283 -60 501 -177 681 -366 152
-160 245 -337 305 -581 l25 -105 12 -2105 c11 -1982 12 -2108 29 -2160 60
-181 181 -322 346 -404 144 -70 224 -88 425 -93 198 -6 309 9 435 58 209 80
353 228 422 434 l23 70 3 1028 3 1027 -316 0 -315 0 0 265 0 265 315 0 315 0
0 465 0 465 265 0 265 0 0 -465 0 -465 300 0 300 0 0 -265 0 -265 -295 0 -295
0 0 -957 c0 -577 -4 -1005 -11 -1076 -42 -479 -357 -821 -882 -957 -169 -44
-270 -55 -497 -54 -319 1 -532 44 -755 153 -310 151 -495 367 -583 681 l-27
95 -5 2080 c-5 1603 -9 2090 -18 2125 -80 289 -200 450 -416 555 -129 63 -218
80 -411 80 -177 0 -261 -15 -382 -66 -249 -106 -417 -353 -453 -669 -6 -50
-10 -554 -10 -1237 l0 -1153 -265 0 -265 0 0 1830 0 1830 265 0 264 0 3 -128z"/>
</g>
</svg>
